<?xml version="1.0" standalone="no"?><!DOCTYPE svg PUBLIC "-//W3C//DTD SVG 1.1//EN" "http://www.w3.org/Graphics/SVG/1.1/DTD/svg11.dtd"><svg t="1598497302816" class="icon" viewBox="0 0 1024 1024" version="1.1" xmlns="http://www.w3.org/2000/svg" p-id="2905" width="50" height="50" xmlns:xlink="http://www.w3.org/1999/xlink"><defs><style type="text/css"></style></defs><path d="M659 133.2c6.2 5.7 60.1 59.4 116.9 111.9 56.9 52.5 108.1 93.5 110.9 98.6 10.6 18.9 37.9 8.2 38.7-5.6 0.6-11 1.1-223.1 2.1-242 4.2-25-26.5-32-26.5-32-13.7 1.6-222.9 31.6-238.6 34-11.5 1.6-24.7 15.5-3.5 35.1z" fill="#d81e06" p-id="2906"></path><path d="M744.2 179.5L110 833.4c-20 22.2-18.3 56.4 3.9 76.5L124 919c22.2 20.1 56.5 18.3 76.5-3.9l634.2-653.9c20-22.2 18.3-56.5-3.9-76.5l-10.1-9.1c-22.2-20-56.4-18.3-76.5 3.9z" fill="#d81e06" p-id="2907"></path><path d="M521.4 180.5C499.5 85.8 441.2 49.4 346.5 71.3c-94.7 21.9-131.1 80.2-109.2 175s80.2 131.2 174.9 109.2c94.8-22 131.2-80.3 109.2-175zM396.4 287c-49.1 11.4-79.3-7.5-90.6-56.6-11.4-49 7.5-79.3 56.6-90.6 49.1-11.3 79.3 7.5 90.6 56.6 11.3 49-7.6 79.2-56.6 90.6zM786 778.9c-22-94.7-80.3-131.2-175-109.2s-131.1 80.2-109.2 175c21.9 94.7 80.2 131.1 174.9 109.2 94.8-22 131.2-80.3 109.3-175zM660.9 885.3c-49.1 11.4-79.3-7.5-90.6-56.6-11.4-49 7.5-79.3 56.6-90.7 49.1-11.3 79.3 7.5 90.6 56.6 11.3 49.2-7.5 79.4-56.6 90.7z" fill="#d81e06" p-id="2908"></path></svg>